<?xml version="1.0" encoding="utf-8"?><svg width="auto" height="3220" style="overflow:visible " version="1.1" xmlns="http://www.w3.org/2000/svg"><rect x="20" y="20" width="200" height="40" style="fill:white;stroke:black;stroke-width:1" /><text x="30" y="30" font-size="10" style="fill:blue">xsl:stylesheet</text><text x="30" y="40" font-size="8" style="fill:black">version: 1.0</text><text x="30" y="50" font-size="8" style="fill:black">xmlns:xsl: http://www.w3.org/1999/XSL/Transform</text><rect x="240" y="20" width="200" height="40" style="fill:white;stroke:black;stroke-width:1" /><text x="250" y="30" font-size="10" style="fill:blue">xsl:output</text><path d="M220 40 C240 40 220 40 240 40" style="fill:transparent;stroke:black" /><text x="250" y="40" font-size="8" style="fill:black">method: html</text><rect x="240" y="70" width="200" height="40" style="fill:white;stroke:black;stroke-width:1" /><text x="250" y="80" font-size="10" style="fill:blue">xsl:template</text><path d="M220 40 C240 40 220 90 240 90" style="fill:transparent;stroke:black" /><text x="250" y="90" font-size="8" style="fill:black">match: rutas</text><rect x="460" y="70" width="200" height="40" style="fill:white;stroke:black;stroke-width:1" /><text x="470" y="80" font-size="10" style="fill:blue">html</text><path d="M440 90 C460 90 440 90 460 90" style="fill:transparent;stroke:black" /><rect x="680" y="70" width="200" height="40" style="fill:white;stroke:black;stroke-width:1" /><text x="690" y="80" font-size="10" style="fill:blue">head</text><path d="M660 90 C680 90 660 90 680 90" style="fill:transparent;stroke:black" /><rect x="900" y="70" width="200" height="40" style="fill:white;stroke:black;stroke-width:1" /><text x="910" y="80" font-size="10" style="fill:blue">title</text><path d="M880 90 C900 90 880 90 900 90" style="fill:transparent;stroke:black" /><rect x="966" y="70" width="137" height="40" style="fill:green;stroke:black;stroke-width:1" /><text x="976" y="80" font-size="8" style="fill:white">Rutas Romanas</text><rect x="900" y="120" width="200" height="40" style="fill:white;stroke:black;stroke-width:1" /><text x="910" y="130" font-size="10" style="fill:blue">link</text><path d="M880 90 C900 90 880 140 900 140" style="fill:transparent;stroke:black" /><text x="910" y="140" font-size="8" style="fill:black">rel: stylesheet</text><text x="910" y="150" font-size="8" style="fill:black">type: text/css</text><text x="910" y="160" font-size="8" style="fill:black">href: estilo.css</text><rect x="680" y="220" width="200" height="40" style="fill:white;stroke:black;stroke-width:1" /><text x="690" y="230" font-size="10" style="fill:blue">body</text><path d="M660 90 C680 90 660 240 680 240" style="fill:transparent;stroke:black" /><rect x="900" y="220" width="200" height="40" style="fill:white;stroke:black;stroke-width:1" /><text x="910" y="230" font-size="10" style="fill:blue">xsl:for-each</text><path d="M880 240 C900 240 880 240 900 240" style="fill:transparent;stroke:black" /><text x="910" y="240" font-size="8" style="fill:black">select: ruta</text><rect x="1120" y="220" width="200" height="40" style="fill:white;stroke:black;stroke-width:1" /><text x="1130" y="230" font-size="10" style="fill:blue">h1</text><path d="M1100 240 C1120 240 1100 240 1120 240" style="fill:transparent;stroke:black" /><rect x="1340" y="220" width="200" height="40" style="fill:white;stroke:black;stroke-width:1" /><text x="1350" y="230" font-size="10" style="fill:blue">xsl:value-of</text><path d="M1320 240 C1340 240 1320 240 1340 240" style="fill:transparent;stroke:black" /><text x="1350" y="240" font-size="8" style="fill:black">select: @titulo</text><rect x="1120" y="320" width="200" height="40" style="fill:white;stroke:black;stroke-width:1" /><text x="1130" y="330" font-size="10" style="fill:blue">h3</text><path d="M1100 240 C1120 240 1100 340 1120 340" style="fill:transparent;stroke:black" /><rect x="1186" y="320" width="137" height="40" style="fill:green;stroke:black;stroke-width:1" /><text x="1196" y="330" font-size="8" style="fill:white">Tipo:</text><rect x="1120" y="370" width="200" height="40" style="fill:white;stroke:black;stroke-width:1" /><text x="1130" y="380" font-size="10" style="fill:blue">xsl:value-of</text><path d="M1100 240 C1120 240 1100 390 1120 390" style="fill:transparent;stroke:black" /><text x="1130" y="390" font-size="8" style="fill:black">select: tipo</text><rect x="1120" y="420" width="200" height="40" style="fill:white;stroke:black;stroke-width:1" /><text x="1130" y="430" font-size="10" style="fill:blue">h3</text><path d="M1100 240 C1120 240 1100 440 1120 440" style="fill:transparent;stroke:black" /><rect x="1186" y="420" width="137" height="40" style="fill:green;stroke:black;stroke-width:1" /><text x="1196" y="430" font-size="8" style="fill:white">Transporte:</text><rect x="1120" y="470" width="200" height="40" style="fill:white;stroke:black;stroke-width:1" /><text x="1130" y="480" font-size="10" style="fill:blue">xsl:value-of</text><path d="M1100 240 C1120 240 1100 490 1120 490" style="fill:transparent;stroke:black" /><text x="1130" y="490" font-size="8" style="fill:black">select: transporte</text><rect x="1120" y="520" width="200" height="40" style="fill:white;stroke:black;stroke-width:1" /><text x="1130" y="530" font-size="10" style="fill:blue">h3</text><path d="M1100 240 C1120 240 1100 540 1120 540" style="fill:transparent;stroke:black" /><rect x="1186" y="520" width="137" height="40" style="fill:green;stroke:black;stroke-width:1" /><text x="1196" y="530" font-size="8" style="fill:white">Agencia:</text><rect x="1120" y="570" width="200" height="40" style="fill:white;stroke:black;stroke-width:1" /><text x="1130" y="580" font-size="10" style="fill:blue">xsl:value-of</text><path d="M1100 240 C1120 240 1100 590 1120 590" style="fill:transparent;stroke:black" /><text x="1130" y="590" font-size="8" style="fill:black">select: agencia</text><rect x="1120" y="620" width="200" height="40" style="fill:white;stroke:black;stroke-width:1" /><text x="1130" y="630" font-size="10" style="fill:blue">h3</text><path d="M1100 240 C1120 240 1100 640 1120 640" style="fill:transparent;stroke:black" /><rect x="1186" y="620" width="137" height="40" style="fill:green;stroke:black;stroke-width:1" /><text x="1196" y="630" font-size="8" style="fill:white">Duración:</text><rect x="1120" y="670" width="200" height="40" style="fill:white;stroke:black;stroke-width:1" /><text x="1130" y="680" font-size="10" style="fill:blue">xsl:value-of</text><path d="M1100 240 C1120 240 1100 690 1120 690" style="fill:transparent;stroke:black" /><text x="1130" y="690" font-size="8" style="fill:black">select: duracion</text><rect x="1120" y="720" width="200" height="40" style="fill:white;stroke:black;stroke-width:1" /><text x="1130" y="730" font-size="10" style="fill:blue">h3</text><path d="M1100 240 C1120 240 1100 740 1120 740" style="fill:transparent;stroke:black" /><rect x="1186" y="720" width="137" height="40" style="fill:green;stroke:black;stroke-width:1" /><text x="1196" y="730" font-size="8" style="fill:white">Personas:</text><rect x="1120" y="770" width="200" height="40" style="fill:white;stroke:black;stroke-width:1" /><text x="1130" y="780" font-size="10" style="fill:blue">xsl:value-of</text><path d="M1100 240 C1120 240 1100 790 1120 790" style="fill:transparent;stroke:black" /><text x="1130" y="790" font-size="8" style="fill:black">select: personas</text><rect x="1120" y="820" width="200" height="40" style="fill:white;stroke:black;stroke-width:1" /><text x="1130" y="830" font-size="10" style="fill:blue">h3</text><path d="M1100 240 C1120 240 1100 840 1120 840" style="fill:transparent;stroke:black" /><rect x="1186" y="820" width="137" height="40" style="fill:green;stroke:black;stroke-width:1" /><text x="1196" y="830" font-size="8" style="fill:white">Lugar:</text><rect x="1120" y="870" width="200" height="40" style="fill:white;stroke:black;stroke-width:1" /><text x="1130" y="880" font-size="10" style="fill:blue">xsl:value-of</text><path d="M1100 240 C1120 240 1100 890 1120 890" style="fill:transparent;stroke:black" /><text x="1130" y="890" font-size="8" style="fill:black">select: lugar</text><rect x="1120" y="920" width="200" height="40" style="fill:white;stroke:black;stroke-width:1" /><text x="1130" y="930" font-size="10" style="fill:blue">h3</text><path d="M1100 240 C1120 240 1100 940 1120 940" style="fill:transparent;stroke:black" /><rect x="1186" y="920" width="137" height="40" style="fill:green;stroke:black;stroke-width:1" /><text x="1196" y="930" font-size="8" style="fill:white">Direccion</text><rect x="966" y="970" width="137" height="40" style="fill:green;stroke:black;stroke-width:1" /><text x="976" y="980" font-size="8" style="fill:white">: 
						</text><rect x="1120" y="970" width="200" height="40" style="fill:white;stroke:black;stroke-width:1" /><text x="1130" y="980" font-size="10" style="fill:blue">xsl:value-of</text><path d="M1100 240 C1120 240 1100 990 1120 990" style="fill:transparent;stroke:black" /><text x="1130" y="990" font-size="8" style="fill:black">select: direccion</text><rect x="1120" y="1020" width="200" height="40" style="fill:white;stroke:black;stroke-width:1" /><text x="1130" y="1030" font-size="10" style="fill:blue">h3</text><path d="M1100 240 C1120 240 1100 1040 1120 1040" style="fill:transparent;stroke:black" /><rect x="1186" y="1020" width="137" height="40" style="fill:green;stroke:black;stroke-width:1" /><text x="1196" y="1030" font-size="8" style="fill:white">Coordenadas:</text><rect x="1120" y="1070" width="200" height="40" style="fill:white;stroke:black;stroke-width:1" /><text x="1130" y="1080" font-size="10" style="fill:blue">h4</text><path d="M1100 240 C1120 240 1100 1090 1120 1090" style="fill:transparent;stroke:black" /><rect x="1186" y="1070" width="137" height="40" style="fill:green;stroke:black;stroke-width:1" /><text x="1196" y="1080" font-size="8" style="fill:white">Longitud:</text><rect x="1120" y="1120" width="200" height="40" style="fill:white;stroke:black;stroke-width:1" /><text x="1130" y="1130" font-size="10" style="fill:blue">xsl:value-of</text><path d="M1100 240 C1120 240 1100 1140 1120 1140" style="fill:transparent;stroke:black" /><text x="1130" y="1140" font-size="8" style="fill:black">select: coordenadas/@longitud</text><rect x="1120" y="1170" width="200" height="40" style="fill:white;stroke:black;stroke-width:1" /><text x="1130" y="1180" font-size="10" style="fill:blue">h4</text><path d="M1100 240 C1120 240 1100 1190 1120 1190" style="fill:transparent;stroke:black" /><rect x="1186" y="1170" width="137" height="40" style="fill:green;stroke:black;stroke-width:1" /><text x="1196" y="1180" font-size="8" style="fill:white">Latitud:</text><rect x="1120" y="1220" width="200" height="40" style="fill:white;stroke:black;stroke-width:1" /><text x="1130" y="1230" font-size="10" style="fill:blue">xsl:value-of</text><path d="M1100 240 C1120 240 1100 1240 1120 1240" style="fill:transparent;stroke:black" /><text x="1130" y="1240" font-size="8" style="fill:black">select: coordenadas/@latitud</text><rect x="1120" y="1270" width="200" height="40" style="fill:white;stroke:black;stroke-width:1" /><text x="1130" y="1280" font-size="10" style="fill:blue">h4</text><path d="M1100 240 C1120 240 1100 1290 1120 1290" style="fill:transparent;stroke:black" /><rect x="1186" y="1270" width="137" height="40" style="fill:green;stroke:black;stroke-width:1" /><text x="1196" y="1280" font-size="8" style="fill:white">Altitud:</text><rect x="1120" y="1320" width="200" height="40" style="fill:white;stroke:black;stroke-width:1" /><text x="1130" y="1330" font-size="10" style="fill:blue">xsl:value-of</text><path d="M1100 240 C1120 240 1100 1340 1120 1340" style="fill:transparent;stroke:black" /><text x="1130" y="1340" font-size="8" style="fill:black">select: coordenadas/@altitud</text><rect x="1120" y="1370" width="200" height="40" style="fill:white;stroke:black;stroke-width:1" /><text x="1130" y="1380" font-size="10" style="fill:blue">h3</text><path d="M1100 240 C1120 240 1100 1390 1120 1390" style="fill:transparent;stroke:black" /><rect x="1186" y="1370" width="137" height="40" style="fill:green;stroke:black;stroke-width:1" /><text x="1196" y="1380" font-size="8" style="fill:white">Recomendación:</text><rect x="1120" y="1420" width="200" height="40" style="fill:white;stroke:black;stroke-width:1" /><text x="1130" y="1430" font-size="10" style="fill:blue">xsl:value-of</text><path d="M1100 240 C1120 240 1100 1440 1120 1440" style="fill:transparent;stroke:black" /><text x="1130" y="1440" font-size="8" style="fill:black">select: recomendacion</text><rect x="966" y="1470" width="137" height="40" style="fill:green;stroke:black;stroke-width:1" /><text x="976" y="1480" font-size="8" style="fill:white">/10 
        </text><rect x="1120" y="1470" width="200" height="40" style="fill:white;stroke:black;stroke-width:1" /><text x="1130" y="1480" font-size="10" style="fill:blue">h4</text><path d="M1100 240 C1120 240 1100 1490 1120 1490" style="fill:transparent;stroke:black" /><rect x="1186" y="1470" width="137" height="40" style="fill:green;stroke:black;stroke-width:1" /><text x="1196" y="1480" font-size="8" style="fill:white">Descripción</text><rect x="1120" y="1520" width="200" height="40" style="fill:white;stroke:black;stroke-width:1" /><text x="1130" y="1530" font-size="10" style="fill:blue">p</text><path d="M1100 240 C1120 240 1100 1540 1120 1540" style="fill:transparent;stroke:black" /><rect x="1340" y="1520" width="200" height="40" style="fill:white;stroke:black;stroke-width:1" /><text x="1350" y="1530" font-size="10" style="fill:blue">xsl:value-of</text><path d="M1320 1540 C1340 1540 1320 1540 1340 1540" style="fill:transparent;stroke:black" /><text x="1350" y="1540" font-size="8" style="fill:black">select: descripcion</text><rect x="1120" y="1620" width="200" height="40" style="fill:white;stroke:black;stroke-width:1" /><text x="1130" y="1630" font-size="10" style="fill:blue">h4</text><path d="M1100 240 C1120 240 1100 1640 1120 1640" style="fill:transparent;stroke:black" /><rect x="1186" y="1620" width="137" height="40" style="fill:green;stroke:black;stroke-width:1" /><text x="1196" y="1630" font-size="8" style="fill:white">Bibliografía</text><rect x="1120" y="1670" width="200" height="40" style="fill:white;stroke:black;stroke-width:1" /><text x="1130" y="1680" font-size="10" style="fill:blue">ul</text><path d="M1100 240 C1120 240 1100 1690 1120 1690" style="fill:transparent;stroke:black" /><rect x="1340" y="1670" width="200" height="40" style="fill:white;stroke:black;stroke-width:1" /><text x="1350" y="1680" font-size="10" style="fill:blue">xsl:for-each</text><path d="M1320 1690 C1340 1690 1320 1690 1340 1690" style="fill:transparent;stroke:black" /><text x="1350" y="1690" font-size="8" style="fill:black">select: bibliografías/bibliografía</text><rect x="1560" y="1670" width="200" height="40" style="fill:white;stroke:black;stroke-width:1" /><text x="1570" y="1680" font-size="10" style="fill:blue">li</text><path d="M1540 1690 C1560 1690 1540 1690 1560 1690" style="fill:transparent;stroke:black" /><rect x="1780" y="1670" width="200" height="40" style="fill:white;stroke:black;stroke-width:1" /><text x="1790" y="1680" font-size="10" style="fill:blue">a</text><path d="M1760 1690 C1780 1690 1760 1690 1780 1690" style="fill:transparent;stroke:black" /><rect x="2000" y="1670" width="200" height="40" style="fill:white;stroke:black;stroke-width:1" /><text x="2010" y="1680" font-size="10" style="fill:blue">xsl:attribute</text><path d="M1980 1690 C2000 1690 1980 1690 2000 1690" style="fill:transparent;stroke:black" /><text x="2010" y="1690" font-size="8" style="fill:black">name: href</text><rect x="2220" y="1670" width="200" height="40" style="fill:white;stroke:black;stroke-width:1" /><text x="2230" y="1680" font-size="10" style="fill:blue">xsl:value-of</text><path d="M2200 1690 C2220 1690 2200 1690 2220 1690" style="fill:transparent;stroke:black" /><text x="2230" y="1690" font-size="8" style="fill:black">select: @link</text><rect x="2000" y="1770" width="200" height="40" style="fill:white;stroke:black;stroke-width:1" /><text x="2010" y="1780" font-size="10" style="fill:blue">xsl:value-of</text><path d="M1980 1690 C2000 1690 1980 1790 2000 1790" style="fill:transparent;stroke:black" /><text x="2010" y="1790" font-size="8" style="fill:black">select: @link</text><rect x="1120" y="2020" width="200" height="40" style="fill:white;stroke:black;stroke-width:1" /><text x="1130" y="2030" font-size="10" style="fill:blue">h4</text><path d="M1100 240 C1120 240 1100 2040 1120 2040" style="fill:transparent;stroke:black" /><rect x="1186" y="2020" width="137" height="40" style="fill:green;stroke:black;stroke-width:1" /><text x="1196" y="2030" font-size="8" style="fill:white">Etapas</text><rect x="1120" y="2070" width="200" height="40" style="fill:white;stroke:black;stroke-width:1" /><text x="1130" y="2080" font-size="10" style="fill:blue">xsl:for-each</text><path d="M1100 240 C1120 240 1100 2090 1120 2090" style="fill:transparent;stroke:black" /><text x="1130" y="2090" font-size="8" style="fill:black">select: etapas/etapa</text><rect x="1340" y="2070" width="200" height="40" style="fill:white;stroke:black;stroke-width:1" /><text x="1350" y="2080" font-size="10" style="fill:blue">ul</text><path d="M1320 2090 C1340 2090 1320 2090 1340 2090" style="fill:transparent;stroke:black" /><rect x="1560" y="2070" width="200" height="40" style="fill:white;stroke:black;stroke-width:1" /><text x="1570" y="2080" font-size="10" style="fill:blue">li</text><path d="M1540 2090 C1560 2090 1540 2090 1560 2090" style="fill:transparent;stroke:black" /><rect x="1626" y="2070" width="137" height="40" style="fill:green;stroke:black;stroke-width:1" /><text x="1636" y="2080" font-size="8" style="fill:white">Nombre: 
								</text><rect x="1780" y="2070" width="200" height="40" style="fill:white;stroke:black;stroke-width:1" /><text x="1790" y="2080" font-size="10" style="fill:blue">xsl:value-of</text><path d="M1760 2090 C1780 2090 1760 2090 1780 2090" style="fill:transparent;stroke:black" /><text x="1790" y="2090" font-size="8" style="fill:black">select: @nombre</text><rect x="1560" y="2170" width="200" height="40" style="fill:white;stroke:black;stroke-width:1" /><text x="1570" y="2180" font-size="10" style="fill:blue">li</text><path d="M1540 2090 C1560 2090 1540 2190 1560 2190" style="fill:transparent;stroke:black" /><rect x="1626" y="2170" width="137" height="40" style="fill:green;stroke:black;stroke-width:1" /><text x="1636" y="2180" font-size="8" style="fill:white">Coordenadas:  Longitud: 
							
								</text><rect x="1780" y="2170" width="200" height="40" style="fill:white;stroke:black;stroke-width:1" /><text x="1790" y="2180" font-size="10" style="fill:blue">xsl:value-of</text><path d="M1760 2190 C1780 2190 1760 2190 1780 2190" style="fill:transparent;stroke:black" /><text x="1790" y="2190" font-size="8" style="fill:black">select: coordenadas/@longitud</text><rect x="1626" y="2220" width="137" height="40" style="fill:green;stroke:black;stroke-width:1" /><text x="1636" y="2230" font-size="8" style="fill:white">, Latitud: 
							
								</text><rect x="1780" y="2220" width="200" height="40" style="fill:white;stroke:black;stroke-width:1" /><text x="1790" y="2230" font-size="10" style="fill:blue">xsl:value-of</text><path d="M1760 2190 C1780 2190 1760 2240 1780 2240" style="fill:transparent;stroke:black" /><text x="1790" y="2240" font-size="8" style="fill:black">select: coordenadas/@latitud</text><rect x="1626" y="2270" width="137" height="40" style="fill:green;stroke:black;stroke-width:1" /><text x="1636" y="2280" font-size="8" style="fill:white"> , Altitud: 
							
								</text><rect x="1780" y="2270" width="200" height="40" style="fill:white;stroke:black;stroke-width:1" /><text x="1790" y="2280" font-size="10" style="fill:blue">xsl:value-of</text><path d="M1760 2190 C1780 2190 1760 2290 1780 2290" style="fill:transparent;stroke:black" /><text x="1790" y="2290" font-size="8" style="fill:black">select: coordenadas/@altitud</text><rect x="1560" y="2370" width="200" height="40" style="fill:white;stroke:black;stroke-width:1" /><text x="1570" y="2380" font-size="10" style="fill:blue">li</text><path d="M1540 2090 C1560 2090 1540 2390 1560 2390" style="fill:transparent;stroke:black" /><rect x="1626" y="2370" width="137" height="40" style="fill:green;stroke:black;stroke-width:1" /><text x="1636" y="2380" font-size="8" style="fill:white">Distancia: 
								</text><rect x="1780" y="2370" width="200" height="40" style="fill:white;stroke:black;stroke-width:1" /><text x="1790" y="2380" font-size="10" style="fill:blue">xsl:value-of</text><path d="M1760 2390 C1780 2390 1760 2390 1780 2390" style="fill:transparent;stroke:black" /><text x="1790" y="2390" font-size="8" style="fill:black">select: distancia/@km</text><rect x="1626" y="2420" width="137" height="40" style="fill:green;stroke:black;stroke-width:1" /><text x="1636" y="2430" font-size="8" style="fill:white"> km
						
							</text><rect x="1560" y="2470" width="200" height="40" style="fill:white;stroke:black;stroke-width:1" /><text x="1570" y="2480" font-size="10" style="fill:blue">li</text><path d="M1540 2090 C1560 2090 1540 2490 1560 2490" style="fill:transparent;stroke:black" /><rect x="1626" y="2470" width="137" height="40" style="fill:green;stroke:black;stroke-width:1" /><text x="1636" y="2480" font-size="8" style="fill:white">Descripción: 
								</text><rect x="1780" y="2470" width="200" height="40" style="fill:white;stroke:black;stroke-width:1" /><text x="1790" y="2480" font-size="10" style="fill:blue">xsl:value-of</text><path d="M1760 2490 C1780 2490 1760 2490 1780 2490" style="fill:transparent;stroke:black" /><text x="1790" y="2490" font-size="8" style="fill:black">select: descripcion</text><rect x="1340" y="2620" width="200" height="40" style="fill:white;stroke:black;stroke-width:1" /><text x="1350" y="2630" font-size="10" style="fill:blue">xsl:for-each</text><path d="M1320 2090 C1340 2090 1320 2640 1340 2640" style="fill:transparent;stroke:black" /><text x="1350" y="2640" font-size="8" style="fill:black">select: fotos/foto</text><rect x="1560" y="2620" width="200" height="40" style="fill:white;stroke:black;stroke-width:1" /><text x="1570" y="2630" font-size="10" style="fill:blue">img</text><path d="M1540 2640 C1560 2640 1540 2640 1560 2640" style="fill:transparent;stroke:black" /><rect x="1780" y="2620" width="200" height="40" style="fill:white;stroke:black;stroke-width:1" /><text x="1790" y="2630" font-size="10" style="fill:blue">xsl:attribute</text><path d="M1760 2640 C1780 2640 1760 2640 1780 2640" style="fill:transparent;stroke:black" /><text x="1790" y="2640" font-size="8" style="fill:black">name: src</text><rect x="2000" y="2620" width="200" height="40" style="fill:white;stroke:black;stroke-width:1" /><text x="2010" y="2630" font-size="10" style="fill:blue">xsl:value-of</text><path d="M1980 2640 C2000 2640 1980 2640 2000 2640" style="fill:transparent;stroke:black" /><text x="2010" y="2640" font-size="8" style="fill:black">select: @link</text><rect x="1780" y="2720" width="200" height="40" style="fill:white;stroke:black;stroke-width:1" /><text x="1790" y="2730" font-size="10" style="fill:blue">xsl:attribute</text><path d="M1760 2640 C1780 2640 1760 2740 1780 2740" style="fill:transparent;stroke:black" /><text x="1790" y="2740" font-size="8" style="fill:black">name: alt</text><rect x="2000" y="2720" width="200" height="40" style="fill:white;stroke:black;stroke-width:1" /><text x="2010" y="2730" font-size="10" style="fill:blue">xsl:value-of</text><path d="M1980 2740 C2000 2740 1980 2740 2000 2740" style="fill:transparent;stroke:black" /><text x="2010" y="2740" font-size="8" style="fill:black">select: @link</text></svg>